<?xml version="1.0" encoding="UTF-8" standalone="no"?>
<!-- Created with Inkscape (http://www.inkscape.org/) -->

<svg
   width="113.92155mm"
   height="113.92264mm"
   viewBox="0 0 113.92155 113.92264"
   version="1.1"
   id="svg54566"
   xml:space="preserve"
   inkscape:export-filename="dinolabsBlue.svg"
   inkscape:export-xdpi="96"
   inkscape:export-ydpi="96"
   xmlns:inkscape="http://www.inkscape.org/namespaces/inkscape"
   xmlns:sodipodi="http://sodipodi.sourceforge.net/DTD/sodipodi-0.dtd"
   xmlns="http://www.w3.org/2000/svg"
   xmlns:svg="http://www.w3.org/2000/svg"><sodipodi:namedview
     id="namedview54568"
     pagecolor="#ffffff"
     bordercolor="#666666"
     borderopacity="1.0"
     inkscape:showpageshadow="2"
     inkscape:pageopacity="0.0"
     inkscape:pagecheckerboard="0"
     inkscape:deskcolor="#d1d1d1"
     inkscape:document-units="mm"
     showgrid="false"
     inkscape:zoom="1.1893044"
     inkscape:cx="362.81712"
     inkscape:cy="434.28747"
     inkscape:window-width="1920"
     inkscape:window-height="1002"
     inkscape:window-x="-8"
     inkscape:window-y="-8"
     inkscape:window-maximized="1"
     inkscape:current-layer="layer1" /><defs
     id="defs54563" /><g
     inkscape:label="Ebene 1"
     inkscape:groupmode="layer"
     id="layer1"
     transform="translate(-45.36836,-60.955626)"><path
       style="fill:#3a63ae;fill-opacity:1;stroke-width:0.999998"
       d="m 101.1504,174.87072 c -0.60536,-0.0102 -1.729313,-0.0599 -2.497663,-0.11046 -17.59375,-1.15813 -33.567293,-10.30086 -43.484626,-24.88916 -2.505589,-3.6857 -4.794862,-8.16449 -6.357374,-12.43772 -3.209677,-8.77796 -4.208659,-18.48537 -2.854447,-27.73749 1.496994,-10.227618 5.758755,-19.892446 12.301635,-27.897661 1.1589,-1.417915 2.836817,-3.236588 4.335518,-4.699211 6.541113,-6.383656 14.563893,-11.11165 23.316962,-13.74118 6.01939,-1.808299 11.829476,-2.559388 18.372665,-2.375093 13.23339,0.37273 26.26781,5.635869 36.20912,14.620801 5.3083,4.797616 9.53204,10.342257 12.71653,16.693349 1.97218,3.933287 3.22967,7.270616 4.29083,11.387665 1.37096,5.31907 1.93137,10.46659 1.76056,16.17133 -0.38312,12.79541 -5.26862,25.35338 -13.66942,35.13667 -7.67062,8.93294 -17.95615,15.30213 -29.32847,18.16129 -3.86224,0.97103 -7.99709,1.56347 -11.55582,1.65572 -0.88476,0.0229 -1.79916,0.0502 -2.032,0.0607 -0.23283,0.0104 -0.91863,0.0106 -1.524,8.5e-4 z m -15.959662,-8.32836 v -1.2772 l 0.381703,0.336 c 0.882957,0.7772 2.268107,0.67784 3.110898,-0.22318 0.47094,-0.50347 0.611383,-0.89669 0.609706,-1.70709 -0.001,-0.48825 -0.04636,-0.72772 -0.196235,-1.03621 -0.417193,-0.85872 -1.399274,-1.40715 -2.34503,-1.30954 -0.535451,0.0553 -0.907617,0.23364 -1.328209,0.63659 l -0.3175,0.30419 v -0.44052 -0.44051 h -0.296333 -0.296333 v 3.21733 3.21734 h 0.338666 0.338667 z m 0.973667,-1.14948 c -0.658114,-0.34695 -0.969948,-0.88696 -0.969948,-1.67966 0,-1.17248 0.76914,-1.89656 1.913737,-1.80165 0.57978,0.0481 1.080756,0.38346 1.36329,0.91265 0.172084,0.32232 0.198954,0.47472 0.174457,0.9895 -0.02433,0.51132 -0.06948,0.66681 -0.282712,0.97367 -0.336141,0.48373 -0.859743,0.74723 -1.475931,0.74278 -0.257891,-0.002 -0.583193,-0.0636 -0.722893,-0.13729 z m -3.530006,0.48768 c 0.467197,-0.23835 0.692948,-0.60908 0.693356,-1.13864 2.54e-4,-0.35237 -0.03956,-0.45051 -0.280746,-0.69169 -0.283232,-0.28323 -0.528969,-0.37495 -1.788563,-0.66751 -0.856588,-0.19897 -1.160243,-0.56847 -0.886893,-1.07923 0.223815,-0.4182 1.331092,-0.54496 2.125064,-0.24327 0.242199,0.092 0.446997,0.1587 0.455106,0.14816 0.0081,-0.0105 0.06283,-0.11139 0.1216,-0.22412 0.09221,-0.17688 0.08544,-0.22062 -0.04942,-0.31923 -0.274665,-0.20084 -0.819839,-0.315 -1.516169,-0.31751 -1.211656,-0.004 -1.819352,0.44957 -1.820016,1.35945 -5.93e-4,0.76034 0.316504,1.01186 1.624596,1.28877 0.959416,0.20311 1.31752,0.36673 1.384222,0.63249 0.07379,0.29401 -0.09374,0.62798 -0.392501,0.78248 -0.41984,0.21711 -1.515204,0.1442 -2.086949,-0.13891 l -0.443124,-0.21941 -0.127947,0.19527 c -0.172715,0.2636 -0.161624,0.34645 0.06255,0.46732 0.833801,0.44956 2.215875,0.52777 2.925827,0.16558 z m 10.31891,0.006 c 0.194831,-0.0995 0.413906,-0.26608 0.486834,-0.37019 0.128354,-0.18325 0.132594,-0.17652 0.132594,0.21053 v 0.39984 h 0.296334 0.296333 l -0.0019,-1.75683 c -0.0016,-1.53256 -0.02206,-1.80132 -0.160118,-2.10533 -0.304385,-0.67028 -1.0921,-1.03451 -2.02383,-0.93581 -0.570014,0.0604 -1.162937,0.25406 -1.449331,0.47341 -0.198815,0.15227 -0.201089,0.16559 -0.06403,0.37477 l 0.142113,0.2169 0.435139,-0.22576 c 0.509472,-0.26433 1.366857,-0.35586 1.769815,-0.18895 0.433456,0.17954 0.674764,0.54482 0.674764,1.02143 v 0.41684 H 92.48466 c -1.071698,0 -1.419187,0.0741 -1.851487,0.39498 -0.315586,0.23422 -0.490198,0.74598 -0.406589,1.19166 0.07065,0.37659 0.505518,0.84295 0.933109,1.00069 0.465675,0.17178 1.338318,0.11429 1.793572,-0.11818 z m -1.549875,-0.38948 c -0.550165,-0.23944 -0.710459,-0.8559 -0.335897,-1.29178 0.201595,-0.23461 0.217912,-0.23791 1.312334,-0.26546 l 1.1082,-0.0279 v 0.43816 c 0,0.3127 -0.05215,0.51138 -0.182124,0.69392 -0.355472,0.49922 -1.286839,0.721 -1.902513,0.45305 z m 7.503303,0.42198 c 0.355867,-0.18052 0.762,-0.5469 0.762,-0.68743 0,-0.0558 -0.09104,-0.16107 -0.20232,-0.23398 -0.188336,-0.1234 -0.213208,-0.12032 -0.359833,0.0445 -0.240885,0.27087 -0.790096,0.48794 -1.239733,0.49001 -1.057927,0.005 -1.750395,-0.71454 -1.750395,-1.81847 0,-1.10394 0.692468,-1.82333 1.750395,-1.81847 0.449637,0.002 0.998848,0.21914 1.239733,0.49001 0.146625,0.16487 0.171497,0.16795 0.359833,0.0445 0.278619,-0.18256 0.25459,-0.31146 -0.11518,-0.61783 -0.649032,-0.53778 -1.795147,-0.64858 -2.613078,-0.25262 -1.40855,0.68186 -1.739753,2.67025 -0.637286,3.82596 0.520827,0.54597 1.090259,0.7584 1.916864,0.71509 0.341999,-0.0179 0.718001,-0.0946 0.889,-0.18137 z m 4.806623,0.0786 c 0.43649,-0.12963 0.95071,-0.48386 0.95071,-0.65494 0,-0.0504 -0.0603,-0.15829 -0.13405,-0.23976 -0.12673,-0.14003 -0.15453,-0.13368 -0.50933,0.11641 -0.30257,0.21327 -0.48005,0.27119 -0.91591,0.29895 -0.646,0.0411 -1.06176,-0.0812 -1.45796,-0.4291 -0.31001,-0.27219 -0.4789,-0.54765 -0.57081,-0.93097 l -0.0558,-0.23283 h 1.99128 1.99128 V 163.559 c 0,-0.5929 -0.23886,-1.15101 -0.68247,-1.59462 -1.22246,-1.22246 -3.35625,-0.63029 -3.81314,1.05822 -0.13256,0.4899 -0.0541,1.381 0.15775,1.79132 0.54816,1.06176 1.80926,1.55125 3.04848,1.18324 z m -2.59015,-2.89777 c 0.19637,-0.72365 0.83056,-1.2065 1.58464,-1.2065 0.51534,0 0.82247,0.10967 1.1414,0.40755 0.23673,0.22112 0.55521,0.79694 0.55896,1.01062 0.001,0.0812 -0.39089,0.10583 -1.68465,0.10583 h -1.68651 z m 8.19753,-0.3175 v -3.34433 h -0.33867 -0.33867 v 3.28788 c 0,1.80835 0.0254,3.3133 0.0564,3.34434 0.031,0.031 0.18344,0.0564 0.33866,0.0564 h 0.28223 z m 3.81853,3.2492 c 0.15829,-0.0523 0.42838,-0.20467 0.6002,-0.33855 l 0.31239,-0.24343 0.0263,0.31739 c 0.024,0.28974 0.0502,0.3197 0.30144,0.34393 l 0.27517,0.0265 v -1.77785 c 0,-1.04757 -0.0369,-1.87575 -0.0899,-2.0162 -0.37684,-0.99952 -1.85822,-1.3302 -3.18261,-0.71044 -0.29564,0.13834 -0.53753,0.27393 -0.53753,0.30129 0,0.0274 0.0595,0.14062 0.13228,0.25166 l 0.13229,0.20189 0.43184,-0.22405 c 0.30591,-0.15871 0.5976,-0.23342 1.00021,-0.25617 0.95776,-0.0541 1.37232,0.25928 1.4913,1.12735 l 0.0524,0.38246 h -1.03886 c -0.57136,0 -1.18972,0.0452 -1.37411,0.10045 -1.26741,0.37972 -1.27502,2.0344 -0.0114,2.48486 0.40119,0.14302 1.09244,0.15653 1.47858,0.0289 z m -1.2465,-0.53452 c -0.55017,-0.23945 -0.71046,-0.8559 -0.3359,-1.29179 0.20244,-0.23558 0.21367,-0.23778 1.35466,-0.26528 l 1.15054,-0.0277 v 0.37504 c 0,0.95602 -1.20644,1.62881 -2.1693,1.20976 z m 5.13263,0.15257 v -0.47708 l 0.17553,0.22314 c 0.68128,0.86611 2.27977,0.95827 3.18477,0.18362 0.54916,-0.47006 0.78876,-1.03701 0.78651,-1.86105 -0.003,-1.03457 -0.38444,-1.71631 -1.18894,-2.12398 -0.86647,-0.43907 -1.96056,-0.32996 -2.58362,0.25766 -0.1723,0.16249 -0.32699,0.29544 -0.34376,0.29544 -0.0168,0 -0.0305,-0.6096 -0.0305,-1.35467 v -1.35466 h -0.29633 -0.29633 v 3.34433 3.34433 h 0.29633 0.29633 z m 0.94558,-0.29725 c -0.72018,-0.35648 -1.08752,-1.3231 -0.83363,-2.19361 0.15851,-0.5435 0.5954,-1.03694 1.05129,-1.1874 0.47657,-0.15728 1.22519,-0.0627 1.60898,0.20325 0.51549,0.35723 0.74073,0.82701 0.74112,1.54573 2.6e-4,0.51864 -0.0339,0.65452 -0.25367,1.00943 -0.47508,0.76708 -1.47739,1.03675 -2.31409,0.6226 z m 6.72598,0.64932 c 0.8828,-0.26216 1.29781,-1.11702 0.8772,-1.80691 -0.21192,-0.34759 -0.65151,-0.54773 -1.62229,-0.7386 -0.40472,-0.0796 -0.85455,-0.21685 -0.99962,-0.30508 -0.23708,-0.14417 -0.26113,-0.19634 -0.2378,-0.5158 0.0216,-0.29596 0.0741,-0.38773 0.31364,-0.54867 0.45152,-0.30333 1.28704,-0.26488 2.14076,0.0985 0.10538,0.0449 0.17791,-0.008 0.27879,-0.20304 l 0.13635,-0.26367 -0.31722,-0.13253 c -1.13615,-0.47472 -2.4973,-0.29415 -3.01144,0.39948 -0.23366,0.31523 -0.28355,0.83758 -0.11409,1.19468 0.19097,0.40245 0.63247,0.62803 1.62651,0.83105 0.98105,0.20038 1.24822,0.36102 1.28383,0.77199 0.0194,0.22402 -0.0258,0.33843 -0.19753,0.49959 -0.20508,0.19248 -0.28748,0.20902 -1.04118,0.20902 -0.71677,0 -0.8717,-0.0275 -1.24689,-0.22126 l -0.42843,-0.22126 -0.13637,0.23761 c -0.15127,0.26358 -0.1296,0.29817 0.3343,0.53375 0.61464,0.31212 1.65241,0.39173 2.36148,0.18115 z m -13.74639,-5.28992 c 0.17462,-0.0673 0.3175,-0.14496 0.3175,-0.17252 0,-0.0492 -0.68409,-0.25455 -0.84788,-0.25455 -0.12232,0 -0.10202,0.48647 0.0224,0.53622 0.0582,0.0233 0.12488,0.0358 0.14817,0.0278 0.0233,-0.008 0.1852,-0.0696 0.35983,-0.13696 z m -9.16932,-0.23462 0.46151,-0.16473 -0.67318,-0.0546 c -0.65328,-0.053 -1.35782,-0.23368 -2.003957,-0.51391 -0.405961,-0.17608 -1.233368,-0.19166 -1.091367,-0.0205 0.130797,0.1576 1.122895,0.63944 1.698604,0.82498 0.54705,0.17629 0.96713,0.15771 1.60839,-0.0712 z m 3.49884,0.0215 c 0.40866,-0.067 1.12303,-0.14796 1.5875,-0.17995 l 0.84448,-0.0582 v -0.2419 -0.2419 h -0.61383 c -0.5506,0 -1.38488,0.10425 -3.4925,0.43491 l -0.67734,0.10628 0.381,0.0602 c 0.20955,0.0331 0.47625,0.0993 0.59267,0.14718 0.2895,0.119 0.51413,0.1146 1.37802,-0.027 z M 91.421146,160.3893 c 0.06371,-0.043 0.04316,-0.17306 -0.0667,-0.42204 -0.142733,-0.32346 -0.188401,-0.35983 -0.451908,-0.35983 -0.337465,0 -0.338801,0.003 -0.155548,0.36404 0.244158,0.48086 0.419762,0.5897 0.67416,0.41783 z m 0.634653,-3.89337 c 0.384165,-1.15252 0.718871,-2.03835 0.743792,-1.9685 0.02492,0.0699 0.33476,1.0033 0.688533,2.07433 l 0.643223,1.94734 0.800196,0.0234 0.800194,0.0234 1.025562,-3.13489 1.02556,-3.13487 h -0.701017 -0.701017 l -0.694952,2.0955 c -0.382225,1.15252 -0.720892,2.12429 -0.752595,2.15948 -0.0317,0.0352 -0.371734,-0.90929 -0.755626,-2.09885 l -0.697985,-2.16285 -0.68727,0.0245 -0.68727,0.0245 -0.702637,2.10672 c -0.386449,1.1587 -0.720377,2.12446 -0.74206,2.14615 -0.02168,0.0217 -0.354167,-0.93587 -0.738853,-2.12789 l -0.699427,-2.16731 h -0.745706 c -0.410138,0 -0.745706,0.0188 -0.745706,0.0417 0,0.0333 1.849942,5.72234 1.989371,6.11779 0.02629,0.0746 0.273649,0.10583 0.837261,0.10583 h 0.799947 z m 7.238144,1.524 c 0.130309,-0.31432 0.272611,-0.61912 0.316227,-0.67733 0.05775,-0.0771 0.45329,-0.10584 1.45557,-0.10584 1.00227,0 1.39781,0.0288 1.45556,0.10584 0.0436,0.0582 0.18592,0.36301 0.31623,0.67733 l 0.23693,0.5715 h 0.75247 c 0.41386,0 0.74979,-0.0286 0.74651,-0.0635 -0.003,-0.0349 -0.62366,-1.4351 -1.37863,-3.1115 l -1.37267,-3.048 h -0.74503 -0.74503 l -1.037971,2.32833 c -0.570886,1.28059 -1.194254,2.68076 -1.385261,3.1115 l -0.347286,0.78317 h 0.747727 0.747728 z m 0.812237,-1.95289 c 0.51773,-1.2668 0.95306,-2.29346 0.96617,-2.27855 0.009,0.0106 0.21499,0.49552 0.45705,1.07761 0.24206,0.58208 0.45991,1.10596 0.48411,1.16416 0.0337,0.0812 -0.18692,0.10584 -0.94577,0.10584 -0.54438,0 -0.97708,-0.0311 -0.96156,-0.0691 z m 6.58989,1.67772 v -0.84666 h 0.69938 0.69937 l 0.5742,0.84666 0.5742,0.84667 h 0.79713 0.79713 l -0.6878,-0.98358 c -0.63568,-0.90905 -0.67551,-0.99028 -0.52554,-1.072 0.42536,-0.23178 0.86876,-0.79405 1.0104,-1.28128 0.33003,-1.13527 -0.16508,-2.18304 -1.27147,-2.69071 -0.39236,-0.18004 -0.55807,-0.19637 -2.26483,-0.22317 l -1.8415,-0.0289 v 3.13983 3.13982 h 0.71966 0.71967 z m 0.0564,-2.08844 c -0.031,-0.031 -0.0564,-0.52634 -0.0564,-1.10067 v -1.04422 h 0.80705 c 0.91076,0 1.26778,0.10923 1.55772,0.47657 0.15893,0.20136 0.18561,0.31953 0.15537,0.68825 -0.043,0.52401 -0.27446,0.82333 -0.73585,0.9515 -0.3395,0.0943 -1.64059,0.11582 -1.72785,0.0286 z m 6.63223,2.08844 v -0.84666 h 0.66128 0.66129 l 0.57824,0.84666 0.57823,0.84667 h 0.79676 0.79675 l -0.40078,-0.5715 c -0.22042,-0.31432 -0.53362,-0.75687 -0.69598,-0.98342 -0.26693,-0.37246 -0.28118,-0.41978 -0.14874,-0.49389 1.15072,-0.64398 1.48321,-2.14657 0.72034,-3.25537 -0.17869,-0.25971 -0.40338,-0.43569 -0.8154,-0.63866 l -0.56874,-0.28016 -1.84363,-0.0283 -1.84362,-0.0283 v 3.13983 3.13982 h 0.762 0.762 z m 0,-3.13266 v -1.10067 h 0.76028 c 1.23935,0 1.69505,0.30336 1.69505,1.1284 0,0.28715 -0.0542,0.44699 -0.21711,0.64063 -0.27291,0.32434 -0.65406,0.43124 -1.53972,0.43183 l -0.6985,8.5e-4 v -1.10067 z m 1.43933,0 c 0,-0.0466 -0.0785,-0.0847 -0.17433,-0.0847 -0.0959,0 -0.15078,0.0381 -0.122,0.0847 0.0288,0.0466 0.10722,0.0847 0.17433,0.0847 0.0671,0 0.122,-0.0381 0.122,-0.0847 z m -26.622179,2.38718 c -0.123082,-0.37057 -0.234722,-0.49319 -0.987751,-1.08498 -1.210379,-0.95122 -1.419907,-1.31408 -1.986514,-3.44033 -0.359789,-1.35014 -0.50516,-1.63442 -1.146696,-2.24244 -0.914222,-0.86647 -1.300605,-1.98518 -1.294293,-3.74743 0.0054,-1.52133 0.329396,-2.71868 1.208522,-4.46683 0.553136,-1.09991 0.331897,-1.00564 2.719579,-1.15879 2.657799,-0.17047 5.282412,-0.29619 5.323597,-0.25501 0.01764,0.0176 -0.181411,0.40583 -0.442329,0.86265 -0.633381,1.10893 -0.831993,1.69052 -0.846225,2.47798 -0.01284,0.71062 0.08511,0.96583 0.617452,1.60867 0.581259,0.70191 0.628702,0.95875 0.346321,1.87491 -0.531238,1.72355 -0.703107,2.94368 -0.511703,3.63267 0.07741,0.27865 0.104244,0.29815 0.367939,0.26737 l 0.284438,-0.0332 -0.123031,-0.35203 c -0.17482,-0.50024 -0.0893,-1.21854 0.324534,-2.72581 0.436893,-1.59127 0.438441,-2.13567 0.0075,-2.63959 -0.632511,-0.73965 -0.776505,-1.0371 -0.776505,-1.60405 0,-0.66911 0.196765,-1.203 0.903767,-2.45219 0.347704,-0.61436 0.597181,-0.96574 0.688577,-0.96985 0.726374,-0.0327 6.246769,-0.13036 6.270889,-0.111 0.01736,0.0139 -0.214112,0.3223 -0.514386,0.68523 -1.082726,1.30866 -1.50469,2.08948 -1.50602,2.78678 -4.24e-4,0.23847 0.113236,0.82902 0.252648,1.31233 0.283855,0.98409 0.313766,1.50475 0.127525,2.21978 -0.419116,1.6091 0.09477,2.14792 3.233474,3.39038 0.66081,0.26159 1.31103,0.47561 1.44493,0.47561 0.2147,0 0.27275,0.0613 0.49142,0.51878 0.24796,0.51879 0.76068,1.06062 1.29626,1.36984 l 0.26492,0.15295 -0.005,-0.32229 c -0.004,-0.27727 -0.0538,-0.35775 -0.35356,-0.57628 -0.19161,-0.1397 -0.52441,-0.48072 -0.73955,-0.75782 -0.45549,-0.58665 -1.05958,-0.94957 -2.40279,-1.4435 -1.770935,-0.6512 -2.848923,-1.37044 -2.848923,-1.90079 0,-0.13748 0.05715,-0.46938 0.127,-0.73755 0.191198,-0.73406 0.162041,-1.57509 -0.08298,-2.39372 -0.336337,-1.1237 -0.353345,-1.43733 -0.106622,-1.96616 0.283142,-0.60688 0.930359,-1.50285 1.630464,-2.25713 l 0.574851,-0.61934 0.7915,0.0267 c 0.43533,0.0147 0.79142,0.006 0.79131,-0.0202 -8e-5,-0.0258 -0.21416,-0.38762 -0.47569,-0.80415 -4.43338,-7.06112 -13.344914,-11.9887 -23.962143,-13.24972 -1.020998,-0.12126 -2.273181,-0.19484 -3.852369,-0.22638 l -2.339684,-0.0467 -0.301924,1.26023 c -0.922842,3.85194 -1.591611,7.37516 -1.999008,10.53123 -0.218283,1.69101 -0.428032,3.9522 -0.428032,4.61436 0,0.4697 -0.02471,0.54208 -0.261918,0.7673 -0.144055,0.13677 -0.406867,0.42077 -0.584028,0.6311 -0.317198,0.3766 -0.319765,0.38533 -0.168392,0.57226 l 0.153717,0.18984 0.894176,-0.8877 c 0.491798,-0.48823 0.980712,-0.9081 1.086478,-0.93304 0.359049,-0.0847 2.893789,-0.45547 4.8913,-0.71558 1.094316,-0.1425 2.113491,-0.27577 2.264833,-0.29616 0.151341,-0.0204 0.275166,-0.0234 0.275166,-0.007 0,0.0166 -0.118735,0.36667 -0.263856,0.77784 -0.30037,0.85103 -0.808235,1.88466 -1.677725,3.41458 -0.330813,0.58208 -0.676777,1.25922 -0.768811,1.50475 -0.729242,1.9455 -0.116807,4.10489 1.525059,5.37723 0.888473,0.68851 1.010213,0.75059 0.760855,0.38798 -0.107779,-0.15673 -0.413237,-0.55186 -0.678796,-0.87807 -1.03791,-1.27496 -1.352059,-2.0224 -1.352059,-3.21689 0,-0.98534 0.19566,-1.53268 1.1501,-3.21733 0.911155,-1.60826 1.308269,-2.4534 1.650993,-3.51367 l 0.232626,-0.71967 0.83264,-0.10039 c 1.396413,-0.16837 5.551467,-0.543 5.59042,-0.50405 0.02012,0.0201 -0.123179,0.35435 -0.31845,0.74272 -1.153615,2.29442 -1.502429,4.28445 -1.09622,6.25405 0.227978,1.10541 0.640002,1.91587 1.235271,2.42979 0.56683,0.48936 0.768066,0.89937 1.134525,2.31155 0.340693,1.31289 0.794929,2.29258 1.285541,2.77265 0.428438,0.41924 2.216204,1.87056 2.260013,1.8347 0.01639,-0.0134 -0.03265,-0.21238 -0.108973,-0.44217 z m 31.278849,-3.44756 c 0.53551,-0.22049 1.41181,-0.51478 1.94733,-0.65396 0.82825,-0.21527 1.14437,-0.25473 2.11667,-0.26419 0.9951,-0.01 1.26839,0.02 2.11209,0.2293 1.33977,0.33241 2.25762,0.30561 3.05918,-0.0893 1.07584,-0.53007 1.17196,-0.63599 1.93808,-2.13561 0.64258,-1.25783 0.74101,-1.40266 1.2567,-1.84911 0.79859,-0.69139 1.16285,-1.08008 1.64414,-1.75441 0.51595,-0.7229 1.19612,-2.08193 1.43465,-2.86656 l 0.17648,-0.58057 0.33893,0.0542 0.33892,0.0542 -0.0577,-0.53197 c -0.15752,-1.45204 -0.64925,-3.96205 -1.15748,-5.9083 -0.30306,-1.16058 -1.37931,-4.54754 -1.47563,-4.64387 -0.0201,-0.0201 -0.18043,0.0934 -0.35629,0.2523 -0.53975,0.4876 -1.40547,1.07073 -2.12223,1.42947 -1.18426,0.59275 -3.5209,1.26877 -4.38542,1.26877 -0.15739,0 -0.20774,0.0586 -0.25172,0.29304 -0.0694,0.37008 0.20417,2.09738 0.64314,4.06039 0.18452,0.82517 0.3355,1.68817 0.3355,1.91777 0,0.22961 0.0234,0.41747 0.052,0.41747 0.16556,0 4.23223,0.63772 5.663,0.88805 0.93133,0.16295 1.72191,0.29649 1.75683,0.29677 0.12421,0.001 0.0605,0.42808 -0.14566,0.97567 -0.53185,1.41299 -1.60968,3.02716 -2.45872,3.68219 -0.76309,0.58872 -1.09611,1.03724 -1.73918,2.34239 -0.59445,1.20649 -0.61338,1.23285 -1.12167,1.56137 -0.98368,0.63579 -1.95948,0.73176 -3.31893,0.32643 -0.87252,-0.26014 -2.4926,-0.31746 -3.57143,-0.12636 -1.42441,0.2523 -3.92157,1.16333 -3.92157,1.43069 0,0.21639 0.10329,0.40249 0.20142,0.36291 0.0522,-0.0211 0.53306,-0.21868 1.06858,-0.43916 z m -7.28134,-4.89012 c 0.20955,-0.1294 0.70319,-0.51952 1.09698,-0.86692 0.39378,-0.34741 0.85098,-0.67434 1.016,-0.72651 0.56467,-0.17854 1.01425,-0.49548 1.18917,-0.83835 0.20946,-0.41059 0.22457,-1.18207 0.0343,-1.7536 -0.16175,-0.48594 -0.29459,-0.64162 -0.48511,-0.56851 -0.17337,0.0665 -0.17895,0.30785 -0.0175,0.75606 0.32263,0.89551 0.0847,1.52885 -0.68203,1.81573 -0.58438,0.21864 -0.80708,0.36872 -1.67982,1.13208 -0.36903,0.32277 -0.80706,0.64372 -0.97339,0.71322 -0.44908,0.18764 -1.09478,0.0932 -2.16565,-0.3167 -1.31437,-0.50312 -1.65246,-0.5192 -2.77403,-0.13193 -0.57504,0.19855 -1.01708,0.30223 -1.21684,0.28538 -0.30359,-0.0256 -0.31943,-0.0436 -0.49001,-0.55594 -0.24586,-0.73849 -0.53479,-1.0695 -1.12651,-1.29056 -0.83708,-0.31273 -0.92514,-0.48084 -0.58115,-1.10951 0.11209,-0.20484 0.33982,-0.62009 0.50608,-0.92277 0.36647,-0.6672 0.3816,-0.98359 0.0733,-1.53286 -0.21909,-0.39032 -0.22518,-0.42856 -0.10314,-0.64748 0.12227,-0.21933 0.30557,-0.30582 1.09797,-0.51805 0.26779,-0.0717 0.3363,-0.39675 0.0995,-0.47191 -0.0904,-0.0287 -0.34859,-0.0109 -0.57371,0.0395 -1.11197,0.2492 -1.49267,0.96812 -0.98804,1.86584 l 0.23107,0.41106 -0.23123,0.44809 c -0.12718,0.24645 -0.36451,0.68943 -0.5274,0.98442 -0.52959,0.95903 -0.33771,1.52874 0.63426,1.88314 0.62229,0.2269 0.77913,0.39989 1.01423,1.11865 0.31704,0.96929 0.70801,1.08246 2.08488,0.60347 1.1922,-0.41474 1.50309,-0.41123 2.65913,0.03 1.15527,0.44096 1.123,0.43376 1.86266,0.41568 0.53022,-0.013 0.69787,-0.0543 1.016,-0.25079 z m 9.779,0.0577 c 1.78726,-0.76048 2.59506,-0.92261 3.43342,-0.68912 0.75324,0.20978 0.98324,0.23145 1.48054,0.13952 0.95014,-0.17564 1.66625,-0.63472 1.99486,-1.27886 0.0923,-0.18095 0.20798,-0.6608 0.25705,-1.06635 0.0518,-0.42795 0.17116,-0.90964 0.28451,-1.14794 0.20616,-0.43344 0.19543,-0.61609 -0.0658,-1.11836 -0.18513,-0.35599 -0.5359,-0.66084 -0.69163,-0.60109 -0.13838,0.0531 -0.18656,0.47904 -0.0542,0.47904 0.0424,0 0.16012,0.17145 0.26156,0.381 l 0.18443,0.381 -0.17292,0.35983 c -0.0951,0.19791 -0.21452,0.69843 -0.26537,1.11227 -0.0508,0.41383 -0.14426,0.85198 -0.20759,0.97366 -0.41234,0.79234 -1.70463,1.21916 -2.75009,0.90831 -0.88008,-0.26168 -1.93267,-0.14652 -3.09092,0.33819 -1.70431,0.71322 -1.75574,0.71045 -2.19109,-0.11803 -0.16671,-0.31723 -0.37829,-0.64484 -0.4702,-0.72802 -0.28429,-0.25727 -0.75959,-0.25985 -1.80001,-0.01 -0.52942,0.12726 -1.15308,0.23645 -1.38591,0.24263 l -0.42333,0.0112 0.007,-0.33866 c 0.004,-0.18885 0.11353,-0.55535 0.24802,-0.82846 0.21451,-0.43564 0.22712,-0.50385 0.11402,-0.61695 -0.19594,-0.19593 -0.38543,-0.0635 -0.6329,0.44229 -0.42698,0.87274 -0.40404,1.56319 0.0602,1.81166 0.26603,0.14237 1.10333,0.0589 2.21909,-0.22111 1.11495,-0.27985 1.21934,-0.24961 1.57579,0.45652 0.49031,0.9713 1.04755,1.16552 2.08159,0.72554 z m -0.40313,-3.30177 c 0.22469,-0.0449 0.2534,-0.0853 0.25627,-0.35983 0.004,-0.3712 0.17152,-0.78043 0.511,-1.24741 0.63099,-0.86796 1.87953,-0.82751 1.87953,0.0609 0,0.4198 -0.096,0.61127 -0.53552,1.06779 -0.19052,0.19791 -0.31815,0.35984 -0.28363,0.35984 0.3297,0 1.97263,-1.18494 2.36871,-1.7084 0.51042,-0.67456 0.54198,-1.73222 0.10857,-3.63823 -0.4124,-1.8136 -0.6604,-3.39904 -0.62865,-4.01884 0.0255,-0.49765 0.0154,-0.52715 -0.25899,-0.75805 -0.53349,-0.4489 -0.63632,-1.01996 -0.3573,-1.98409 0.46088,-1.59249 1.0211,-2.42777 1.68703,-2.51535 0.68146,-0.0896 1.05572,0.31879 1.06388,1.16096 0.004,0.38404 -0.0728,0.63891 -0.43644,1.45406 -0.67737,1.51831 -0.65543,1.42471 -0.33373,1.42401 0.37323,-8.5e-4 1.49145,-0.27608 2.39951,-0.59068 1.49227,-0.517 2.53209,-1.16286 3.74722,-2.32752 1.57225,-1.50692 2.7514,-3.23697 5.09535,-7.47588 1.30432,-2.35879 2.14855,-3.37453 4.49651,-5.41 1.9285,-1.67183 2.40235,-2.13299 2.29843,-2.23691 -0.22984,-0.22984 -1.88802,-0.30953 -3.32829,-0.15995 -3.3012,0.34284 -5.18292,1.15846 -9.27099,4.01843 -2.46435,1.72403 -3.26332,2.05452 -4.74134,1.96128 -1.29493,-0.0817 -3.95021,-0.87554 -5.588,-1.67064 -2.17045,-1.05369 -4.41427,-2.90363 -5.98157,-4.93157 -1.09725,-1.41975 -1.19046,-1.71816 -2.02201,-6.47354 -0.23037,-1.31738 -0.51585,-2.68898 -0.63441,-3.048 -0.31603,-0.95701 -1.54627,-3.39101 -2.25567,-4.46276 -0.73687,-1.11326 -2.02944,-2.460433 -2.63659,-2.747985 -0.30242,-0.143232 -0.65419,-0.211174 -1.36988,-0.26459 -1.33081,-0.09932 -2.0828,-0.363175 -3.52918,-1.238277 -1.31577,-0.796086 -1.69904,-0.915229 -2.73604,-0.850532 -0.747952,0.04666 -1.428877,0.286091 -1.732361,0.609136 -0.197776,0.210523 -0.763918,1.443858 -0.765585,1.667819 -7.62e-4,0.09753 0.09275,0.149853 0.313869,0.175667 0.248851,0.02905 0.389269,-0.01565 0.669448,-0.213144 0.287569,-0.202697 0.463998,-0.256785 0.933931,-0.286314 0.526438,-0.03308 0.619278,-0.01302 1.015868,0.219542 1.13702,0.666735 1.83033,2.297338 1.94719,4.579678 0.058,1.132 -0.0287,1.56072 -0.40151,1.98528 -0.52265,0.59527 -1.80642,0.78965 -2.655147,0.40204 -0.924572,-0.42224 -1.828969,-1.33826 -2.440616,-2.47199 -0.565947,-1.04901 -0.685722,-1.69947 -0.54039,-2.93469 l 0.07134,-0.606369 -0.706343,0.03907 c -2.926216,0.161869 -4.823165,0.594319 -6.797059,1.549539 -1.000002,0.48393 -1.703072,1.08007 -2.430746,2.06107 -1.624887,2.19055 -2.260752,5.09471 -1.584696,7.23771 l 0.08728,0.27667 0.41373,-0.37198 c 1.047421,-0.94172 2.476765,-1.1288 4.004642,-0.52415 0.28628,0.1133 0.577657,0.21772 0.647507,0.23206 0.06985,0.0143 0.147706,0.0537 0.173013,0.0874 0.05088,0.0679 1.238754,0.80547 1.901321,1.18062 2.109178,1.19424 4.592918,0.79012 6.060714,-0.98612 l 0.322075,-0.38976 0.212343,0.67219 c 0.264718,0.83798 0.479932,2.05748 0.500892,2.83828 0.01555,0.57919 0.0097,0.59733 -0.218189,0.67923 -0.35283,0.12679 -0.461754,-0.0497 -0.569848,-0.92314 -0.106007,-0.85661 -0.249823,-1.651 -0.298897,-1.651 -0.01792,0 -0.245056,0.14885 -0.504759,0.33077 -1.268684,0.88871 -2.7401,1.12763 -4.431129,0.71947 -0.566277,-0.13667 -0.63418,-0.13756 -0.897987,-0.0118 -0.353676,0.16865 -0.652691,0.55472 -1.110234,1.43344 l -0.354288,0.68042 -0.275904,-1.13167 c -0.346735,-1.42219 -0.655805,-2.27805 -0.802349,-2.22181 -0.12281,0.0471 -0.548946,0.62279 -0.745494,1.00708 -0.0719,0.14058 -0.252476,0.6301 -0.401276,1.08783 -0.148801,0.45772 -0.301583,0.7999 -0.339516,0.76039 -0.03793,-0.0395 -0.475433,-0.8624 -0.972222,-1.82866 -0.49679,-0.96626 -0.945136,-1.75683 -0.996325,-1.75683 -0.141358,0 -0.908607,0.8273 -0.908607,0.97972 0,0.25465 0.788099,1.35162 1.429703,1.99004 0.969996,0.96519 2.051915,1.63442 3.459963,2.14017 1.258456,0.45203 2.294046,0.65471 5.905333,1.15577 2.281251,0.31652 3.324005,0.57111 4.323795,1.05566 0.71394,0.34602 1.55022,0.97896 1.72503,1.30558 0.0495,0.0925 0.006,0.37971 -0.12835,0.84284 -0.49167,1.69751 -0.58717,6.51838 -0.16212,8.18365 0.36212,1.41871 1.78978,3.68491 3.6251,5.75431 l 0.37315,0.42075 0.17861,-0.35012 c 0.55678,-1.09137 2.15815,-1.10231 2.82772,-0.0193 0.50933,0.82382 0.52156,1.88244 0.0278,2.40597 -0.23239,0.24641 -0.33963,0.29697 -0.62991,0.29697 -0.19241,0 -0.34983,0.0225 -0.34983,0.05 0,0.0275 0.13441,0.20707 0.2987,0.39901 0.69448,0.81134 0.90253,1.74403 0.52636,2.35969 -0.24349,0.39851 -0.46631,0.56741 -1.25282,0.94967 -0.7208,0.35033 -1.39958,0.905 -1.77471,1.45023 -0.31146,0.45269 -0.31895,0.52829 -0.0298,0.30084 0.43651,-0.34336 1.02345,-0.12465 1.21387,0.45232 0.10849,0.32871 0.0647,0.60324 -0.18693,1.17112 -0.19701,0.44467 -0.19575,0.451 0.10481,0.52628 0.20691,0.0518 0.21161,0.0423 0.21678,-0.43761 0.0126,-1.17214 0.97968,-1.96866 1.61674,-1.33161 0.19683,0.19684 0.21411,0.26761 0.18335,0.75073 -0.023,0.36094 -0.10686,0.67391 -0.25945,0.96801 l -0.22548,0.43461 h 0.23057 c 0.21504,0 0.23718,-0.0348 0.32863,-0.51596 0.17676,-0.93009 0.73539,-1.5151 1.44737,-1.51573 0.72483,-8.4e-4 0.98593,0.60842 0.57154,1.33319 -0.11315,0.19791 -0.19038,0.35983 -0.17161,0.35983 0.068,0 1.03225,-0.80805 1.81108,-1.51772 1.10143,-1.00362 1.27764,-1.26165 1.27764,-1.8709 0,-0.42503 -0.067,-0.62035 -0.54533,-1.59016 -0.29993,-0.60808 -0.60473,-1.30564 -0.67733,-1.55011 -0.19387,-0.65282 -0.16806,-1.5401 0.0686,-2.357 l 0.20055,-0.69242 -0.2357,-0.43901 c -0.59309,-1.10472 -0.83677,-2.54859 -0.68107,-4.03562 0.24488,-2.33873 1.02343,-4.13945 2.02552,-4.68485 1.47159,-0.80094 2.79198,0.759 2.46464,2.91181 -0.12294,0.80853 -0.35468,1.38185 -1.5984,3.9545 -0.56179,1.16205 -1.02143,2.1575 -1.02143,2.21211 0,0.17742 0.75665,0.91389 1.38063,1.34382 0.72078,0.49661 1.20929,0.74991 2.50016,1.29631 0.52788,0.22344 1.094,0.50863 1.25805,0.63375 0.30217,0.23048 0.61392,0.78422 0.61581,1.09383 0.002,0.32046 -0.40029,1.01836 -1.19808,2.07869 -1.18163,1.57047 -1.64933,2.47568 -1.42118,2.75058 0.17282,0.20823 0.22564,0.14262 0.2757,-0.34245 0.0696,-0.67469 0.35339,-1.14124 0.84132,-1.3833 0.3967,-0.1968 0.40275,-0.19716 0.71824,-0.0423 0.58178,0.28551 0.56567,1.07953 -0.038,1.87032 -0.15819,0.20724 -0.27548,0.38694 -0.26066,0.39934 0.0856,0.0716 0.41037,0.21481 0.48706,0.21481 0.0496,0 0.0902,-0.0974 0.0902,-0.21651 0,-0.45409 0.19861,-0.98004 0.49703,-1.31617 0.25251,-0.28443 0.37523,-0.35373 0.6883,-0.38865 0.96579,-0.10776 1.2114,0.88509 0.46181,1.86679 -0.31093,0.40721 -0.29254,0.43978 0.19339,0.3426 z M 104.2407,129.63547 v -0.84666 h -0.80974 -0.80973 l 0.52582,-0.67971 c 0.96351,-1.24551 2.04318,-2.1021 3.10952,-2.46704 0.43855,-0.15008 0.73853,-0.19185 1.32846,-0.18494 0.4191,0.005 0.86677,0.0507 0.99483,0.10187 0.12806,0.0511 0.23284,0.0639 0.23284,0.0283 0,-0.0355 -0.16864,-0.54278 -0.37475,-1.1272 -0.41238,-1.1693 -0.64125,-2.14634 -0.64125,-2.73742 v -0.38457 h 0.36224 0.36224 l 0.0954,0.69941 c 0.0947,0.69432 0.37516,1.61203 1.20529,3.94348 0.23771,0.66764 0.40318,1.1996 0.3677,1.18214 -0.0355,-0.0175 -0.44497,-0.22082 -0.90998,-0.45189 l -0.84548,-0.42014 h -0.89019 c -0.8292,0 -0.9279,0.0185 -1.44053,0.26988 -0.30268,0.14844 -0.83608,0.51039 -1.18533,0.80434 l -0.635,0.53445 0.35557,0.0258 0.35557,0.0258 0.0254,0.41533 0.0254,0.41533 0.45289,-0.3041 c 1.30466,-0.87604 2.86104,-0.93841 4.7045,-0.18852 0.32197,0.13097 0.61478,0.21997 0.65069,0.19777 0.12813,-0.0792 0.39945,-0.94281 0.62345,-1.98446 0.52364,-2.43505 0.95474,-3.89467 1.1503,-3.89467 0.0389,0 0.20155,0.0771 0.36132,0.1714 l 0.2905,0.17139 -0.2068,0.51199 c -0.11374,0.28159 -0.33843,1.09028 -0.49932,1.7971 -0.56981,2.50327 -0.65012,2.81365 -0.83801,3.23858 -0.3597,0.81348 -0.82035,0.96964 -1.70482,0.57794 -0.67617,-0.29946 -1.65859,-0.54173 -2.1967,-0.54173 -0.93612,0 -1.86587,0.45132 -2.93785,1.42611 -0.31526,0.28667 -0.59148,0.52122 -0.61384,0.52122 -0.0224,0 -0.0406,-0.381 -0.0406,-0.84667 z m 16.76095,14.44038 c -0.003,-0.15477 -0.0261,-0.14591 -0.21125,0.08 -0.11451,0.1397 -0.20839,0.34712 -0.20862,0.46095 -4.2e-4,0.19806 0.009,0.19463 0.21125,-0.08 0.11642,-0.1578 0.2103,-0.36522 0.20862,-0.46096 z m 2.44525,-0.0884 c -0.0967,-0.0967 -0.31791,0.0638 -0.53016,0.38456 -0.32343,0.48874 -0.26751,0.5077 0.17937,0.0608 0.21895,-0.21894 0.3768,-0.41937 0.35079,-0.44538 z m -12.51754,0.0453 c 0,-0.13217 -0.23248,-0.007 -0.36108,0.19371 -0.26256,0.4107 -0.22932,0.51779 0.0639,0.2058 0.16346,-0.17394 0.2972,-0.35372 0.2972,-0.39951 z m -2.25379,-0.0462 c 0.0519,-0.23945 0.0477,-0.24458 -0.0732,-0.0897 -0.0706,0.0904 -0.12714,0.26185 -0.12573,0.381 0.003,0.26289 0.11404,0.10049 0.19897,-0.29135 z m 10.21339,-0.0635 c 0.0923,-0.15134 0.16791,-0.35 0.16809,-0.44148 2.5e-4,-0.14531 -0.0148,-0.15065 -0.11924,-0.0423 -0.1151,0.11936 -0.32863,0.75898 -0.25338,0.75898 0.0202,0 0.11225,-0.12383 0.20453,-0.27517 z m -12.14677,-0.28247 0.04,-0.33136 -0.12394,0.254 c -0.14756,0.30244 -0.17639,0.62902 -0.0438,0.49646 0.0483,-0.0483 0.10574,-0.23686 0.12775,-0.4191 z m 32.16232,-1.30503 c 1.37427,-2.05658 2.70243,-4.45661 3.60774,-6.51933 l 0.27869,-0.635 -0.19324,-0.762 c -0.30734,-1.21193 -1.20862,-3.8762 -1.89622,-5.60534 -0.52752,-1.32659 -1.84307,-4.2975 -1.9506,-4.40503 -0.017,-0.017 -0.286,0.43775 -0.59791,1.01044 -1.42888,2.62363 -2.68463,4.55494 -3.80546,5.85271 -0.56969,0.65963 -0.58216,0.68395 -0.48117,0.93853 0.057,0.14375 0.36416,1.04241 0.68252,1.99702 0.90595,2.71653 1.62897,5.81188 1.99746,8.55134 0.0783,0.58208 0.15386,1.07131 0.16793,1.08717 0.0141,0.0159 0.2285,0.077 0.47651,0.13589 0.44075,0.10464 0.4553,0.10208 0.64386,-0.1135 0.10612,-0.12131 0.58757,-0.81111 1.06989,-1.5329 z m -71.778194,0.83837 c 0.620875,-0.10812 0.58183,-0.0165 0.664033,-1.55803 0.06483,-1.21577 0.248881,-2.93371 0.517028,-4.826 1.678329,-11.84382 6.305425,-25.93738 11.869375,-36.15267 5.137747,-9.432784 10.814289,-15.379356 16.483887,-17.268017 1.489734,-0.496262 2.113601,-0.592508 3.854721,-0.594688 0.86149,-0.0011 1.77589,0.02414 2.032,0.05604 l 0.46567,0.05801 -0.381,-0.122748 c -1.0081,-0.324779 -1.72906,-0.416602 -3.259666,-0.415155 -1.676232,0.0016 -2.524834,0.137516 -4.061865,0.650637 -7.56232,2.524597 -15.435547,12.646385 -21.423465,27.541921 -3.613567,8.9891 -6.177787,18.8188 -7.15036,27.41024 -0.241495,2.13331 -0.453455,5.17373 -0.366726,5.26045 0.07136,0.0714 0.136869,0.0679 0.756368,-0.04 z m -1.15303,-2.70103 c 0.267066,-3.68354 1.129185,-9.09826 2.099578,-13.18684 l 0.246163,-1.03716 h -0.232644 c -0.409066,0 -2.797425,0.33994 -3.935351,0.56013 -2.092725,0.40494 -4.614333,1.0919 -4.614333,1.25707 0,0.19469 0.682884,2.59107 1.068368,3.74913 1.1044,3.31779 2.961534,7.18662 4.76523,9.92706 l 0.474069,0.72027 0.01996,-0.381 c 0.01098,-0.20955 0.06001,-0.93345 0.108964,-1.60866 z m 52.655044,0.41776 0.27663,-0.34424 -0.27724,-0.88532 c -0.15248,-0.48693 -0.31822,-0.9175 -0.3683,-0.95683 -0.0501,-0.0393 -0.45839,-0.2313 -0.90734,-0.42661 -1.0534,-0.45827 -2.05993,-1.08051 -2.68715,-1.66121 -0.27419,-0.25386 -0.51931,-0.46155 -0.54471,-0.46155 -0.0254,0 -0.0915,0.21828 -0.14689,0.48507 -0.17414,0.83883 -0.064,1.34778 0.59018,2.72602 0.3221,0.67865 0.6103,1.31963 0.64045,1.42441 0.0302,0.10477 0.0999,0.19361 0.15494,0.19741 0.0551,0.004 0.63353,0.0555 1.28546,0.11496 1.81006,0.16499 1.66878,0.18009 1.98397,-0.21211 z m -10.84467,-0.67034 c 0.69681,-0.3477 1.02904,-0.65757 1.02904,-0.95978 0,-0.36294 -0.39541,-0.96163 -1.18222,-1.79003 -0.44832,-0.47202 -0.86809,-0.9897 -0.93281,-1.15041 -0.0647,-0.16071 -0.44416,-0.63627 -0.84317,-1.05679 -2.32111,-2.44622 -4.23847,-5.65121 -4.23847,-7.08487 0,-0.12991 -0.0326,-0.23621 -0.0724,-0.23621 -0.2038,0 -1.24878,1.29248 -1.796916,2.2225 -0.157812,0.26776 -0.308278,0.48683 -0.334366,0.48683 -0.02609,0 -0.152901,-0.32385 -0.281805,-0.71966 -0.128902,-0.39582 -0.244221,-0.71967 -0.256264,-0.71967 -0.01204,0 -0.371629,0.14948 -0.799081,0.33217 -0.427453,0.1827 -0.777187,0.32471 -0.777187,0.31557 0,-0.0923 0.578737,-1.47974 0.806738,-1.93405 0.626527,-1.2484 1.559423,-2.36721 2.706331,-3.24567 l 0.62145,-0.47599 0.0513,-0.73451 c 0.1147,-1.64103 0.22675,-2.53938 0.37944,-3.04224 l 0.16085,-0.52972 -0.35224,-0.28592 c -0.19374,-0.15725 -0.58859,-0.4043 -0.87746,-0.549 -1.026146,-0.51401 -1.97882,-0.71483 -6.078783,-1.28135 -1.436479,-0.19849 -2.880942,-0.50435 -3.838217,-0.81272 -0.91702,-0.29541 -2.412862,-1.05035 -3.068181,-1.54849 -1.090833,-0.8292 -2.250935,-2.22612 -2.70934,-3.26242 -0.159252,-0.36002 -0.177281,-0.37181 -0.776982,-0.50837 -1.801915,-0.41032 -5.946854,-0.99306 -7.676344,-1.07923 l -0.543066,-0.0271 -0.244015,0.59267 c -0.917597,2.22867 -2.419804,6.5104 -3.326915,9.48266 -0.498176,1.63234 -1.312955,4.49648 -1.311197,4.60917 4.23e-4,0.0261 0.733832,0.0558 1.629833,0.0659 12.679857,0.14317 23.946204,5.63999 29.202747,14.24794 l 0.54288,0.889 1.81673,0.0449 c 0.9992,0.0247 2.01416,0.0533 2.25547,0.0635 0.3639,0.0154 0.554,-0.0389 1.11456,-0.31862 z m 1.29187,-4.04426 c 0.18278,-0.47653 -0.15479,-1.43018 -0.57384,-1.62111 -0.26843,-0.12231 -0.71258,-0.11468 -0.88166,0.0151 -0.19996,0.15352 -0.33133,0.44117 -0.33133,0.72546 0,0.27438 0.32874,0.58991 0.97241,0.93332 0.46873,0.25009 0.70409,0.23483 0.81442,-0.0528 z m 16.58977,-1.905 c 0.06,-0.15134 0.29326,-0.68815 0.51827,-1.19292 0.40938,-0.91834 0.51997,-1.50141 0.30943,-1.63153 -0.37814,-0.2337 -1.40427,2.27257 -1.17613,2.87263 0.11423,0.30045 0.21571,0.28642 0.34843,-0.0482 z m -10.71109,-1.95133 c 1.15065,-2.37026 1.394,-3.04129 1.39335,-3.8421 -6e-4,-0.77535 -0.12892,-1.18973 -0.47569,-1.53649 -0.24798,-0.24798 -0.32822,-0.2816 -0.56101,-0.23504 -0.95016,0.19003 -1.81229,2.27355 -1.90404,4.6015 -0.0283,0.71942 -0.007,1.31016 0.0592,1.64715 0.11248,0.57171 0.41926,1.45781 0.48274,1.39434 0.0217,-0.0217 0.47419,-0.93494 1.00548,-2.02936 z m -14.25293,-4.6637 0.7511,-0.75187 -0.024,-0.85226 -0.024,-0.85226 -0.61388,0.52864 c -0.65313,0.56243 -1.386497,1.45508 -1.811729,2.20523 -0.198191,0.34962 -0.225279,0.44399 -0.11534,0.4018 0.484331,-0.18585 0.535202,-0.17008 0.646202,0.20041 l 0.106353,0.35497 0.167111,-0.2414 c 0.09191,-0.13276 0.505103,-0.57973 0.918203,-0.99326 z m -40.728999,-0.6396 c 2.112636,-0.64311 4.81081,-1.1846 7.389538,-1.48298 0.601766,-0.0696 1.118579,-0.15621 1.148472,-0.19241 0.02989,-0.0362 0.124454,-0.35156 0.210133,-0.70081 0.856742,-3.49227 2.534677,-8.75857 4.018435,-12.61211 0.329178,-0.85493 0.598506,-1.57286 0.598506,-1.5954 0,-0.0863 -5.019914,0.0637 -6.349999,0.18984 -3.163915,0.29996 -8.050267,1.13957 -8.218773,1.41222 -0.07505,0.12142 -0.22091,1.47197 -0.341847,3.16512 -0.120207,1.68291 -0.04988,5.38692 0.134231,7.06966 0.235517,2.15261 0.691755,4.91067 0.812322,4.91067 0.03349,0 0.303035,-0.0737 0.598982,-0.1638 z m 85.579469,-1.94658 c 0.33597,-0.33598 -0.0668,-0.82161 -0.46507,-0.56069 -0.24025,0.15742 -0.2627,0.35139 -0.0659,0.5689 0.17931,0.19815 0.32685,0.19586 0.53093,-0.008 z m -18.67733,-4.18241 c -3.14787,-4.38128 -6.90056,-8.27803 -11.32034,-11.75492 -0.64622,-0.50835 -1.18809,-0.91114 -1.20416,-0.89507 -0.0377,0.0377 0.57746,3.51217 0.79802,4.50711 0.0929,0.4191 0.25156,0.98187 0.35258,1.2506 0.24513,0.65212 1.02047,1.68081 2.11146,2.80141 2.3255,2.38862 4.48775,3.62739 8.00331,4.58513 0.69854,0.1903 1.7352,0.37873 1.80947,0.3289 0.0152,-0.0102 -0.2324,-0.38065 -0.55034,-0.82316 z m 2.50106,0.40105 c 0.34307,-0.15951 1.35272,-0.79565 2.24366,-1.41364 1.5496,-1.07486 2.40499,-1.63838 2.98969,-1.96956 l 0.26913,-0.15244 -0.26242,-0.38747 c -3.93895,-5.81632 -9.25915,-11.30607 -15.30418,-15.79188 -7.86409,-5.835682 -17.36779,-10.243559 -27.304996,-12.66423 -0.931333,-0.226869 -1.828868,-0.436477 -1.994524,-0.465794 -0.295438,-0.05228 -0.320499,-0.0333 -1.312333,0.994304 -0.556128,0.576183 -1.401961,1.522022 -1.879628,2.101862 -0.831016,1.008771 -2.560877,3.316006 -2.521028,3.362468 0.01048,0.01222 0.567232,0.118369 1.237233,0.235893 3.664333,0.642758 9.028924,2.068376 11.778897,3.130194 0.114246,0.04411 0.194397,-0.05568 0.388423,-0.483594 0.581272,-1.281966 1.462124,-1.770672 3.187366,-1.768384 1.03465,0.0014 1.45279,0.143526 2.76674,0.940602 1.35049,0.81924 2.0947,1.075925 3.41443,1.177668 0.61055,0.04707 1.06901,0.130341 1.31742,0.239285 1.409,0.617934 3.01951,2.601946 4.44902,5.480786 0.39309,0.79164 0.84565,1.83571 1.0057,2.32017 l 0.29099,0.88083 1.16998,0.88804 c 4.93413,3.74511 9.30666,8.26832 12.64211,13.07776 0.51698,0.74545 0.43326,0.72979 1.42832,0.26713 z m -37.375126,-8.66465 0.237336,-0.24773 -0.410015,-0.2552 c -0.225508,-0.14036 -0.423433,-0.24178 -0.439834,-0.22538 -0.04569,0.0457 0.261055,0.97603 0.321811,0.97603 0.02935,0 0.160166,-0.11147 0.290702,-0.24772 z m -2.487704,-1.20604 c 0.18469,-0.21903 0.306982,-0.41568 0.271758,-0.43699 -0.349358,-0.2114 -2.05371,-0.43478 -2.05371,-0.26918 0,0.0228 0.217373,0.47809 0.483051,1.01182 l 0.483051,0.97043 0.240024,-0.43892 c 0.132013,-0.2414 0.391135,-0.61813 0.575826,-0.83716 z m -29.536005,-0.53212 c 3.525329,-0.7622 6.910445,-1.1397 10.931002,-1.219 l 2.777282,-0.0548 0.617579,-1.43934 c 1.809507,-4.21724 3.918285,-8.306542 5.995828,-11.626982 0.417421,-0.667142 0.739869,-1.232061 0.716554,-1.255378 -0.05277,-0.05277 -1.767939,-0.23427 -3.613525,-0.382387 -2.180845,-0.175023 -8.642494,-0.148518 -10.879666,0.04463 -0.9779,0.08443 -1.802399,0.178844 -1.83222,0.209815 -0.156461,0.162495 -1.122298,1.93986 -1.801932,3.315977 -1.675658,3.392855 -2.930251,7.053845 -3.64133,10.625665 -0.385743,1.93763 -0.393768,1.98966 -0.306841,1.98966 0.04168,0 0.508448,-0.0935 1.037269,-0.20788 z m 24.541997,-0.60666 c -0.129787,-0.70209 -0.110531,-2.1909 0.0385,-2.97652 0.393084,-2.07217 1.457766,-4.02067 2.963969,-5.42444 0.530726,-0.49463 0.858553,-0.71409 1.602567,-1.07281 2.090045,-1.007695 4.059257,-1.466477 6.929911,-1.61451 0.642706,-0.03314 1.138006,-0.08853 1.100667,-0.123079 -0.09965,-0.0922 -2.389849,-0.851457 -4.047225,-1.341749 -3.153501,-0.932881 -8.883746,-2.175911 -9.297974,-2.016957 -0.318799,0.122335 -2.79251,4.372725 -4.371145,7.510605 -1.430831,2.84409 -3.035603,6.39517 -2.935351,6.49542 0.02394,0.0239 0.607443,0.0962 1.296668,0.16065 1.900137,0.17758 5.017067,0.63684 6.460136,0.95186 0.162983,0.0356 0.308233,0.0362 0.322777,0.001 0.01454,-0.0348 -0.01403,-0.28225 -0.0635,-0.54986 z m 51.031788,0.20494 c 0.23749,-0.23749 0.0586,-0.6604 -0.2794,-0.6604 -0.35655,0 -0.50368,0.37323 -0.24796,0.62896 0.15846,0.15845 0.38674,0.17206 0.52736,0.0314 z m -5.19611,-2.65611 c 0.26357,-0.26358 0.0878,-0.71362 -0.27867,-0.71362 -0.1391,0 -0.35029,0.25524 -0.35029,0.42333 0,0.18373 0.21565,0.42334 0.381,0.42334 0.0632,0 0.17478,-0.0599 0.24796,-0.13305 z m 20.82213,-2.0577 c 1.75668,-0.73925 3.21364,-1.36376 3.23769,-1.38781 0.0322,-0.0322 -2.53799,-6.290168 -2.62262,-6.385694 -0.008,-0.0088 -1.18892,0.478847 -2.62479,1.083558 -1.43588,0.604712 -2.64822,1.086966 -2.69408,1.071676 -0.0778,-0.0259 -0.57596,-1.104475 -0.57596,-1.246884 0,-0.03546 1.19505,-0.568255 2.65566,-1.183982 L 151.208,96.6015 150.57875,95.105694 c -0.34608,-0.822693 -0.80175,-1.905381 -1.01259,-2.405973 -0.21083,-0.500591 -0.39842,-0.910166 -0.41684,-0.910166 -0.17065,0 -1.13596,0.466361 -1.13596,0.548801 0,0.05911 0.0973,0.327369 0.21612,0.596145 0.11886,0.268775 0.18554,0.51669 0.14817,0.550922 -0.0374,0.03423 -1.23001,0.548704 -2.65029,1.143273 -1.42028,0.594567 -2.59124,1.087377 -2.60213,1.095132 -0.0109,0.0078 0.0929,0.278241 0.2306,0.60108 0.14941,0.350254 0.29398,0.575866 0.35846,0.559421 0.0594,-0.01516 1.23813,-0.500933 2.61932,-1.0795 1.38118,-0.578568 2.5487,-1.051941 2.59449,-1.051941 0.0793,0 0.56083,1.092654 0.50575,1.147732 -0.0145,0.01452 -1.15725,0.502175 -2.53939,1.083675 -1.38215,0.5815 -2.56826,1.088844 -2.63582,1.127432 -0.10039,0.05735 0.0203,0.410277 0.66072,1.932823 0.55906,1.32903 0.81944,1.85646 0.90886,1.84099 0.0689,-0.0119 1.25855,-0.4977 2.64362,-1.0795 1.38507,-0.5818 2.54385,-1.057191 2.57508,-1.056424 0.0655,0.0016 0.62044,1.283494 0.57518,1.328754 -0.0165,0.0165 -1.20338,0.52393 -2.63743,1.12754 -1.43405,0.60362 -2.61962,1.10974 -2.63461,1.12472 -0.0617,0.0618 0.4295,1.15892 0.5189,1.15892 0.0534,0 1.2365,-0.47904 2.62907,-1.06455 1.39258,-0.5855 2.5656,-1.07127 2.60671,-1.0795 0.0642,-0.0128 0.68136,1.30672 0.62727,1.34115 -0.0108,0.007 -1.1817,0.49829 -2.60198,1.09203 -1.42029,0.59373 -2.61064,1.10658 -2.64524,1.13967 -0.0676,0.0647 0.35113,1.19587 0.44269,1.19587 0.0303,0 1.49229,-0.60484 3.24897,-1.34408 z m -10.94686,0.0711 c 0.31723,-0.16977 0.15469,-0.67435 -0.21723,-0.67435 -0.22695,0 -0.381,0.15405 -0.381,0.381 0,0.3347 0.27187,0.46802 0.59823,0.29335 z m -84.402743,-1.02622 c 1.411769,-0.5195 2.596569,-0.97022 2.632888,-1.00161 0.03632,-0.0314 -0.37766,-1.26032 -0.919954,-2.73098 l -0.98599,-2.673919 -0.519379,0.193134 c -0.285658,0.106223 -1.490929,0.546968 -2.678379,0.979432 -1.18745,0.432463 -2.168593,0.793103 -2.180317,0.801423 -0.04871,0.0346 1.955274,5.37705 2.016953,5.37705 0.03703,0 1.222409,-0.42504 2.634178,-0.94453 z m -2.216814,-0.18349 c 0,-0.015 -0.305965,-0.85843 -0.679922,-1.87419 -0.373957,-1.01576 -0.669232,-1.85558 -0.656167,-1.86628 0.01307,-0.0107 0.766706,-0.28813 1.674756,-0.61652 0.90805,-0.328386 1.7511,-0.63558 1.873445,-0.682649 l 0.222447,-0.08558 0.690398,1.870879 c 0.379719,1.02898 0.660618,1.89699 0.62422,1.92891 -0.08071,0.0708 -3.558655,1.35279 -3.669965,1.35279 -0.04357,0 -0.07921,-0.0123 -0.07921,-0.0274 z m 3.094721,-1.80564 c -0.02644,-0.10534 -0.08466,-0.28776 -0.129376,-0.40538 l -0.0813,-0.21384 -0.955187,0.34318 c -0.525353,0.18874 -0.987021,0.34997 -1.025928,0.35827 -0.03891,0.008 -0.221974,-0.404 -0.406815,-0.91623 -0.184842,-0.51224 -0.366421,-0.96187 -0.40351,-0.99919 -0.06545,-0.0658 -0.769935,0.16924 -0.769935,0.25694 0,0.0399 0.396513,1.13259 0.840526,2.31628 l 0.177565,0.47337 1.401018,-0.51093 c 1.313106,-0.47887 1.398002,-0.52295 1.352945,-0.70247 z m -1.390301,-0.74201 c 0.296585,-0.11239 0.644082,-0.24482 0.772213,-0.29429 l 0.232966,-0.0899 -0.140901,-0.36187 c -0.0775,-0.19904 -0.152175,-0.37618 -0.165954,-0.39365 -0.01378,-0.0175 -0.179804,0.0302 -0.368945,0.10584 -0.405029,0.16206 -0.425132,0.16443 -0.425132,0.0502 0,-0.0481 -0.05438,-0.21754 -0.120844,-0.37661 l -0.120845,-0.28922 -0.365989,0.1386 c -0.201294,0.0762 -0.376079,0.14467 -0.388411,0.15209 -0.0215,0.0129 0.51402,1.56319 0.539977,1.56319 0.0069,0 0.255279,-0.0919 0.551865,-0.20434 z m 46.349677,3.12839 c 0.44557,-0.18617 0.57745,-0.57385 0.51947,-1.52705 -0.15408,-2.53299 -1.10321,-4.30991 -2.215391,-4.147553 -0.184518,0.02694 -0.350268,0.06376 -0.368332,0.08182 -0.01807,0.01807 0.08377,0.178246 0.226296,0.355957 0.525137,0.654776 0.648877,1.431146 0.341837,2.144866 -0.304228,0.7072 -0.786043,0.86501 -1.290009,0.42253 -0.449072,-0.39429 -0.678149,-1.01015 -0.685119,-1.84189 -0.0056,-0.66411 -0.01509,-0.69829 -0.194739,-0.6985 -0.252645,-3.4e-4 -0.314508,0.2557 -0.317063,1.3121 -0.0019,0.77697 0.01998,0.89317 0.265581,1.41157 0.346718,0.73184 0.60189,1.10153 1.14842,1.66384 0.64541,0.66405 1.174209,0.94448 1.782839,0.94547 0.26925,4.2e-4 0.62305,-0.055 0.78621,-0.12316 z m -42.61426,-3.04766 0.295852,-0.12362 -0.983399,-2.670383 c -0.540869,-1.468713 -1.016561,-2.670386 -1.057093,-2.670386 -0.127178,0 -5.17293,1.872829 -5.252587,1.9496 -0.07105,0.06848 0.06686,0.541994 0.204181,0.701053 0.03244,0.03758 1.048687,-0.295798 2.258324,-0.740833 1.209637,-0.445034 2.235302,-0.809153 2.279254,-0.809153 0.04395,0 0.342195,0.714375 0.662761,1.5875 0.97911,2.666802 1.074545,2.899832 1.187608,2.899832 0.06009,0 0.242382,-0.0556 0.405099,-0.12361 z m 40.485133,-0.97706 c -0.02586,-0.16298 -0.144301,-0.44532 -0.263194,-0.62742 -0.186924,-0.2863 -0.227149,-0.31147 -0.297332,-0.18606 -0.105215,0.18801 -0.01151,0.75486 0.204455,1.23682 l 0.170728,0.381 0.116184,-0.254 c 0.06731,-0.14715 0.0964,-0.37867 0.06916,-0.55034 z m -39.405637,-0.91766 c 0,-0.0949 -1.885827,-5.217137 -1.946578,-5.287236 -0.03173,-0.03661 -1.159304,0.339308 -2.505723,0.835378 -1.346417,0.49607 -2.549605,0.938211 -2.673749,0.982536 l -0.225718,0.08059 0.127843,0.375199 c 0.07031,0.206359 0.168709,0.375197 0.218656,0.375197 0.04995,0 1.080517,-0.364119 2.290155,-0.809153 1.209637,-0.445035 2.226671,-0.77841 2.260075,-0.740833 0.03341,0.03758 0.394813,0.98272 0.803131,2.10032 0.408316,1.1176 0.773971,2.115962 0.812566,2.218582 0.0686,0.18239 0.07881,0.18364 0.454757,0.0555 0.211522,-0.0721 0.384585,-0.15583 0.384585,-0.18612 z m 68.480094,-0.16308 c 0.0347,-0.243442 -0.20465,-0.344317 -0.38622,-0.162749 -0.11242,0.112419 -0.11608,0.156329 -0.0224,0.269209 0.15236,0.18358 0.37553,0.12544 0.40861,-0.10646 z M 115.5691,94.820621 c 0.0559,-0.05588 0.1016,-0.18161 0.1016,-0.2794 0,-0.09779 -0.0457,-0.22352 -0.1016,-0.2794 -0.24235,-0.24235 -0.6604,-0.05743 -0.6604,0.292127 0,0.304811 0.44326,0.483806 0.6604,0.266673 z M 82.201778,93.672728 c 1.153419,-1.655 2.857514,-3.743783 4.238066,-5.194779 l 0.614107,-0.645442 -1.376107,-0.222076 c -4.18783,-0.675833 -8.736876,-1.065676 -12.476922,-1.069245 l -1.702816,-0.0016 -0.96836,0.997213 c -1.112462,1.145608 -2.3939,2.662182 -3.485543,4.12512 -0.9714,1.301795 -1.776681,2.499338 -1.719272,2.556747 0.02465,0.02465 0.589765,-0.0015 1.255812,-0.05818 1.791793,-0.152392 7.69759,-0.209047 9.691727,-0.09297 1.71221,0.09966 4.404905,0.327273 4.557935,0.385277 0.04657,0.01765 0.24473,0.0351 0.440362,0.03878 l 0.355696,0.0067 0.575315,-0.8255 z m 36.418482,0.453673 c 0.0344,-0.17882 -0.12536,-0.311768 -0.29601,-0.246281 -0.1201,0.04608 -0.15422,0.295182 -0.0541,0.395257 0.10503,0.105031 0.31874,0.0141 0.35015,-0.148976 z m 13.62821,-1.59244 c 0.23749,-0.23749 0.0586,-0.6604 -0.2794,-0.6604 -0.22695,0 -0.381,0.154055 -0.381,0.381 0,0.226946 0.15405,0.381 0.381,0.381 0.0978,0 0.22352,-0.04572 0.2794,-0.1016 z m -1.69168,-0.554566 c 0.022,-0.15515 -0.0133,-0.1905 -0.1905,-0.1905 -0.17719,0 -0.21755,0.04037 -0.21755,0.217555 0,0.177185 0.0353,0.212534 0.1905,0.1905 0.12242,-0.01739 0.20016,-0.09513 0.21755,-0.217555 z m -2.02956,-1.704775 c 0.16703,-0.105853 0.0825,-0.386562 -0.12541,-0.416368 -0.2123,-0.03044 -0.33257,0.205077 -0.19151,0.375041 0.1116,0.134473 0.15999,0.140782 0.31692,0.04133 z m -24.66749,-1.195058 c 0,-0.132202 -0.0547,-0.219881 -0.14843,-0.237931 -0.16759,-0.03228 -0.27658,0.170453 -0.19955,0.371188 0.0808,0.210431 0.34798,0.108096 0.34798,-0.133257 z m 5.7998,-1.566334 c 0.11477,-0.440567 0.29444,-0.719666 0.46329,-0.719666 0.0542,0 0.30545,-0.06224 0.55837,-0.138307 l 0.45987,-0.138306 -0.635,-0.180424 -0.635,-0.180423 -0.20494,-0.63377 -0.20494,-0.63377 -0.17827,0.590664 c -0.19527,0.646962 -0.26807,0.71256 -1.02052,0.919642 -0.24572,0.06762 -0.37005,0.135961 -0.29633,0.162877 0.0699,0.0255 0.3556,0.116673 0.635,0.202595 l 0.508,0.156222 0.16203,0.620871 c 0.17218,0.659783 0.20993,0.657042 0.38844,-0.0282 z m 13.86826,-1.2446 c 0.0559,-0.05588 0.1016,-0.18161 0.1016,-0.2794 0,-0.09779 -0.0457,-0.22352 -0.1016,-0.2794 -0.0559,-0.05588 -0.18161,-0.1016 -0.2794,-0.1016 -0.0978,0 -0.22352,0.04572 -0.2794,0.1016 -0.0559,0.05588 -0.1016,0.18161 -0.1016,0.2794 0,0.09779 0.0457,0.22352 0.1016,0.2794 0.0559,0.05588 0.18161,0.1016 0.2794,0.1016 0.0978,0 0.22352,-0.04572 0.2794,-0.1016 z m -6.1214,-2.225573 c 0,-0.186788 -0.26322,-0.279806 -0.40123,-0.141791 -0.14231,0.142304 -0.002,0.367216 0.21035,0.33707 0.1249,-0.01774 0.19088,-0.08524 0.19088,-0.195279 z M 88.391138,83.643962 c 0.05588,-0.05588 0.1016,-0.18161 0.1016,-0.2794 0,-0.09779 -0.04572,-0.22352 -0.1016,-0.2794 -0.05588,-0.05588 -0.18161,-0.1016 -0.2794,-0.1016 -0.09779,0 -0.22352,0.04572 -0.2794,0.1016 -0.05588,0.05588 -0.1016,0.18161 -0.1016,0.2794 0,0.09779 0.04572,0.22352 0.1016,0.2794 0.05588,0.05588 0.18161,0.1016 0.2794,0.1016 0.09779,0 0.22352,-0.04572 0.2794,-0.1016 z M 113.9774,83.279895 c 0.0841,-0.101322 0.0841,-0.152677 0,-0.254 -0.21158,-0.254936 -0.51316,-0.05988 -0.39271,0.254 0.0268,0.06985 0.10241,0.127 0.16802,0.127 0.0656,0 0.16672,-0.05715 0.22469,-0.127 z m 2.12224,-1.315312 c 0.22749,-0.121753 0.22033,-0.553458 -0.0112,-0.677393 -0.13614,-0.07286 -0.22076,-0.06368 -0.381,0.04131 -0.24025,0.15742 -0.26271,0.351389 -0.0659,0.568899 0.16128,0.178219 0.23142,0.188506 0.45811,0.06719 z m -9.96083,-2.080413 c 0.17318,-0.06645 0.17343,-0.362098 3.4e-4,-0.42851 -0.0735,-0.02819 -0.19401,0.0092 -0.26789,0.08308 -0.11072,0.110721 -0.11519,0.157395 -0.0254,0.265578 0.12477,0.150346 0.11569,0.14787 0.29293,0.07986 z m 23.49039,-0.208338 c 0.42496,-0.24165 0.62482,-0.542839 0.66962,-1.009126 0.0499,-0.519646 -0.0816,-0.761561 -0.87586,-1.610871 -0.65736,-0.702905 -0.75003,-0.937536 -0.44567,-1.128267 0.21759,-0.136358 0.76662,0.154009 1.2424,0.657077 0.22552,0.238456 0.43024,0.489888 0.45492,0.558737 0.0367,0.102421 0.13154,0.07954 0.5215,-0.12585 0.26215,-0.138066 0.47663,-0.298598 0.47663,-0.356736 0,-0.16764 -0.98339,-1.173984 -1.42264,-1.455852 -0.77293,-0.495987 -1.70333,-0.600891 -2.20609,-0.24874 -0.53279,0.373179 -0.74096,1.068087 -0.48289,1.611939 0.0776,0.16347 0.38101,0.540339 0.6743,0.837486 0.70368,0.712926 0.86632,0.966247 0.72763,1.133357 -0.29072,0.350299 -1.20921,-0.153424 -1.74869,-0.959029 -0.17707,-0.264401 -0.32693,-0.491319 -0.33304,-0.504264 -0.006,-0.01294 -0.22243,0.09785 -0.48072,0.246202 -0.33749,0.193846 -0.45642,0.307662 -0.4227,0.404535 0.10569,0.303602 0.7052,1.0076 1.15081,1.351384 0.93216,0.71916 1.88621,0.94733 2.50049,0.598018 z M 93.016356,79.463848 c 0.26845,-0.268449 0.05944,-0.660773 -0.32766,-0.615049 -0.304336,0.03595 -0.42581,0.314856 -0.247812,0.568984 0.148495,0.212006 0.390185,0.231353 0.575472,0.04606 z M 77.296297,78.320314 c 1.452702,-0.894571 1.873955,-1.207143 2.231899,-1.656088 0.383543,-0.481049 0.561965,-0.872992 0.673476,-1.479436 0.08355,-0.454362 0.07751,-0.626431 -0.03773,-1.07557 -0.252535,-0.98422 -0.849539,-1.761047 -1.680146,-2.186219 -0.65628,-0.335938 -1.589447,-0.375687 -2.394724,-0.102008 -0.767825,0.260951 -3.363736,1.842554 -3.300005,2.010585 0.06239,0.1645 3.189347,5.257317 3.227957,5.257317 0.01714,0 0.592814,-0.345861 1.279273,-0.768581 z m -1.703646,-2.667117 c -0.552432,-0.909341 -0.990582,-1.664725 -0.973667,-1.678631 0.312524,-0.256926 1.574848,-0.914262 1.886606,-0.982422 0.863585,-0.188808 1.640689,0.210688 2.060147,1.059085 0.547377,1.107129 0.198557,1.946383 -1.157659,2.785305 -0.421775,0.260898 -0.776796,0.473382 -0.788934,0.472186 -0.01214,-0.0012 -0.474062,-0.746183 -1.026493,-1.655523 z m 49.409329,0.749179 c 1.41933,-0.796299 1.78564,-2.787606 0.71813,-3.903873 -0.43993,-0.460027 -1.03364,-0.724644 -1.63625,-0.729279 l -0.51921,-0.004 0.50319,-1.003798 c 0.27675,-0.55209 0.49135,-1.014316 0.47688,-1.027172 -0.0145,-0.01286 -0.29219,-0.156582 -0.61715,-0.319391 l -0.59084,-0.296018 -1.0017,1.915856 c -0.55093,1.053721 -1.24573,2.380749 -1.544,2.94895 l -0.5423,1.033095 0.56573,0.300405 c 0.31115,0.165223 0.59299,0.300406 0.6263,0.300406 0.0333,0 0.0847,-0.0762 0.11431,-0.169334 0.075,-0.236142 0.17377,-0.211227 0.29173,0.07355 0.15464,0.373346 0.60507,0.759991 1.15605,0.992357 0.67485,0.284605 1.36102,0.246245 1.99913,-0.111761 z m -1.85766,-1.120417 c -0.50114,-0.22749 -0.71868,-0.600774 -0.67725,-1.162134 0.0884,-1.198371 1.33466,-1.778173 2.12445,-0.988384 0.12287,0.122862 0.26508,0.362531 0.31603,0.532598 0.18024,0.60158 -0.22369,1.416632 -0.82697,1.668702 -0.36318,0.151746 -0.50734,0.143927 -0.93626,-0.05078 z m -39.983887,-0.13094 c 0.304926,-0.157684 0.421638,-0.365028 0.421638,-0.749061 0,-0.365711 -0.327615,-0.781918 -0.675653,-0.85836 -0.610813,-0.134157 -1.210576,0.515817 -1.017052,1.102198 0.186305,0.564511 0.734812,0.782531 1.271067,0.505223 z m 35.626427,-1.03629 c 0.85706,-2.356167 0.96771,-2.717547 0.97862,-3.196166 0.0144,-0.629626 -0.19729,-1.074399 -0.69163,-1.453393 -0.63893,-0.489849 -1.76345,-0.790001 -2.70461,-0.721906 -0.39689,0.02872 -0.42202,0.09448 -0.30549,0.799465 l 0.0525,0.3175 h 0.62484 c 0.74642,0 1.32357,0.228282 1.5155,0.59943 0.12361,0.23905 0.16426,0.601588 0.0772,0.688645 -0.0255,0.02546 -0.44345,-0.08249 -0.92885,-0.23989 -0.48541,-0.157402 -1.0373,-0.286185 -1.22643,-0.286185 -0.93543,0 -1.57114,0.751231 -1.40139,1.656051 0.16323,0.870101 1.67653,1.633123 2.53094,1.276128 0.3177,-0.132744 0.31961,-0.132348 0.26294,0.05455 -0.0314,0.103547 -0.0622,0.220206 -0.0685,0.259241 -0.0106,0.06611 0.88524,0.447791 1.10214,0.469566 0.0537,0.0054 0.13566,-0.09498 0.18224,-0.22304 z M 116.6444,72.70924 c -0.58991,-0.270666 -0.70096,-0.743601 -0.24479,-1.042497 0.20858,-0.136667 0.24969,-0.132703 0.93365,0.09004 0.65258,0.212521 0.71066,0.249178 0.66077,0.417057 -0.15166,0.510425 -0.82333,0.776877 -1.34963,0.5354 z m -30.735791,1.244904 c 0.326954,-0.123245 0.607599,-0.234808 0.623656,-0.247915 0.03493,-0.02851 -2.107743,-5.721252 -2.190045,-5.818602 -0.05592,-0.06615 -1.162093,0.308681 -1.290806,0.437393 -0.05268,0.05268 0.547311,1.700765 2.046102,5.620376 0.04897,0.128058 0.117741,0.232833 0.152831,0.232833 0.03509,0 0.331307,-0.100838 0.658262,-0.224085 z m 3.07985,-0.997232 c 0.461995,-0.238907 0.572362,-0.889172 0.221657,-1.305962 -0.268628,-0.319246 -0.608025,-0.39935 -0.999317,-0.235858 -0.422302,0.176449 -0.61472,0.569074 -0.487306,0.994342 0.175124,0.584511 0.729429,0.824415 1.264966,0.547478 z M 113.754,69.407221 c 0.4103,-1.692722 0.75224,-3.146766 0.75987,-3.23121 0.0111,-0.123172 -0.11003,-0.185122 -0.61263,-0.313264 -0.34457,-0.08785 -0.65182,-0.129232 -0.68277,-0.09196 -0.0454,0.05463 -1.52049,6.044122 -1.55865,6.32861 -0.006,0.04409 0.21785,0.14582 0.49725,0.226058 0.91535,0.262871 0.7547,0.55645 1.59693,-2.918237 z m -21.874596,2.712293 c 0.515434,-0.09691 0.548451,-0.116799 0.520654,-0.313547 -0.01632,-0.115539 -0.158508,-0.931485 -0.315967,-1.813214 -0.157459,-0.881729 -0.270805,-1.618628 -0.25188,-1.637552 0.01893,-0.01893 0.862011,0.676645 1.873523,1.545712 1.424995,1.224322 1.879218,1.570591 2.017225,1.537795 0.09796,-0.02328 0.359087,-0.06844 0.580278,-0.100349 0.221192,-0.03191 0.401939,-0.08227 0.401662,-0.111909 -0.0013,-0.136439 -1.082646,-6.117968 -1.110706,-6.143825 -0.01748,-0.01611 -0.341548,0.02738 -0.720142,0.09665 -0.55928,0.102325 -0.682562,0.152131 -0.657469,0.265616 0.08682,0.392648 0.620085,3.518302 0.603146,3.535241 -0.01085,0.01085 -0.838781,-0.681914 -1.839855,-1.539465 -1.001074,-0.857552 -1.88161,-1.559317 -1.956746,-1.559476 -0.170743,-3.64e-4 -1.02539,0.159821 -1.06522,0.199651 -0.02767,0.02767 0.964885,5.816855 1.036283,6.044225 0.04044,0.128771 0.175346,0.127926 0.885214,-0.0055 z m 18.294516,-0.559439 c 0.54538,-0.545382 0.17221,-1.445846 -0.59918,-1.445846 -0.50798,0 -0.84667,0.350013 -0.84667,0.874961 0,0.320373 0.0409,0.414374 0.2605,0.59918 0.37363,0.314394 0.85413,0.302925 1.18535,-0.02829 z m -4.43731,-0.514498 c 0.98588,-0.341682 1.67419,-1.055917 1.98621,-2.06103 0.54444,-1.753833 -0.42941,-3.550258 -2.20628,-4.069845 -0.25335,-0.07408 -0.76878,-0.134472 -1.14773,-0.134472 -1.52673,0 -2.67669,0.760892 -3.18044,2.104405 -0.14528,0.387478 -0.17384,0.62256 -0.15091,1.242157 0.0244,0.658832 0.0663,0.841483 0.30426,1.324389 0.33027,0.670336 0.78196,1.100524 1.5164,1.444207 0.90559,0.423777 1.93423,0.477449 2.87849,0.150189 z m -1.95664,-1.142347 c -0.90007,-0.320634 -1.39275,-1.138944 -1.28993,-2.142493 0.16232,-1.584265 2.02838,-2.329276 3.21594,-1.283942 0.46159,0.406307 0.67373,0.894435 0.6711,1.544156 -0.006,1.411398 -1.29529,2.34603 -2.59711,1.882279 z m -4.189387,1.064179 c 0.197758,-0.197757 0.247487,-0.321569 0.247487,-0.616161 0,-0.45517 -0.172189,-0.71447 -0.542308,-0.816665 -0.407326,-0.112468 -0.698107,-0.03029 -0.949351,0.268297 -0.186242,0.221335 -0.213227,0.319563 -0.176734,0.643325 0.056,0.496844 0.350577,0.768691 0.832961,0.768691 0.263407,0 0.396469,-0.05601 0.587945,-0.247487 z"
       id="path54715" /></g></svg>
